<svg xmlns="http://www.w3.org/2000/svg" viewBox="0 0 1000 400" width="100%" height="100%">
  <!-- Background -->
  <rect width="1000" height="400" fill="#FFFFFF"/>

  <g fill="#000000">
    <!-- 1. First 'A' - Left Slanted Bar -->
    <rect x="110" y="30" width="90" height="340" rx="40" ry="40" transform="skewX(-28) translate(120, 0)"/>

    <!-- 2. First 'A' - Lower Triangle (Counter) -->
    <path d="M 205 340 L 275 210 Q 285 190 295 210 L 365 340 Q 375 360 350 360 L 220 360 Q 195 360 205 340 Z"/>

    <!-- 3. 'V' - Center Main Bar (Downward Slanted) -->
    <rect x="360" y="30" width="95" height="340" rx="42" ry="42" transform="skewX(28) translate(-130, 0)"/>

    <!-- 4. 'V' - Top Right Inverted Triangle -->
    <path d="M 480 30 Q 465 30 475 50 L 530 150 Q 540 170 550 150 L 605 50 Q 615 30 600 30 Z"/>

    <!-- 5. Second 'A' - Left Slanted Bar -->
    <rect x="525" y="30" width="90" height="340" rx="40" ry="40" transform="skewX(-28) translate(120, 0)"/>

    <!-- 6. Second 'A' - Lower Triangle (Counter) -->
    <path d="M 715 340 L 785 210 Q 795 190 805 210 L 875 340 Q 885 360 860 360 L 730 360 Q 705 360 715 340 Z"/>
  </g>
</svg>